<svg width="26" height="26" viewBox="0 0 26 26" fill="none" xmlns="http://www.w3.org/2000/svg">
<path fill-rule="evenodd" clip-rule="evenodd" d="M21.2499 21.2481C17.6844 24.814 12.4047 25.5844 8.08413 23.5863C7.4463 23.3295 6.92338 23.1219 6.42625 23.1219C5.04155 23.1301 3.31801 24.4728 2.42223 23.5781C1.52646 22.6822 2.87012 20.9573 2.87012 19.5642C2.87012 19.067 2.6708 18.5534 2.41403 17.9144C0.414949 13.5945 1.18644 8.31305 4.75195 4.74833C9.30351 0.195089 16.6983 0.19509 21.2499 4.74715C25.8097 9.30743 25.8015 16.696 21.2499 21.2481Z" stroke="#212121" stroke-width="1.5" stroke-linecap="round" stroke-linejoin="round"/>
<path d="M17.596 13.4818H17.6065" stroke="#212121" stroke-width="2" stroke-linecap="round" stroke-linejoin="round"/>
<path d="M12.9188 13.4818H12.9293" stroke="#212121" stroke-width="2" stroke-linecap="round" stroke-linejoin="round"/>
<path d="M8.2416 13.4818H8.2521" stroke="#212121" stroke-width="2" stroke-linecap="round" stroke-linejoin="round"/>
</svg>
