<svg width="24" height="24" viewBox="0 0 24 24" fill="none" xmlns="http://www.w3.org/2000/svg">
<path fill-rule="evenodd" clip-rule="evenodd" d="M16.4914 0.917423C17.2276 0.917423 17.9626 1.02126 18.6614 1.25576C22.9676 2.65576 24.5193 7.38076 23.2231 11.5108C22.4881 13.6213 21.2864 15.5474 19.7126 17.1213C17.4598 19.3029 14.9876 21.2396 12.3264 22.9079L12.0348 23.0841L11.7314 22.8963C9.06092 21.2396 6.57475 19.3029 4.30092 17.1096C2.73759 15.5358 1.53475 13.6213 0.788088 11.5108C-0.530245 7.38076 1.02142 2.65576 5.37425 1.23126C5.71259 1.11459 6.06142 1.03292 6.41142 0.987423H6.55142C6.87925 0.939589 7.20475 0.917423 7.53142 0.917423H7.65975C8.39475 0.939589 9.10642 1.06792 9.79592 1.30242H9.86475C9.91142 1.32459 9.94642 1.34909 9.96975 1.37126C10.2276 1.45409 10.4714 1.54742 10.7048 1.67576L11.1481 1.87409C11.2552 1.93122 11.3755 2.01852 11.4794 2.09397C11.5452 2.14178 11.6045 2.18482 11.6498 2.21242C11.6688 2.22366 11.6881 2.23495 11.7077 2.24634C11.8077 2.30473 11.9119 2.36556 11.9998 2.43292C13.2959 1.44242 14.8698 0.905756 16.4914 0.917423ZM19.5948 9.31742C20.0731 9.30459 20.4814 8.92076 20.5164 8.42959V8.29076C20.5514 6.65626 19.5609 5.17576 18.0548 4.60409C17.5764 4.43959 17.0514 4.69742 16.8764 5.18742C16.7131 5.67742 16.9698 6.21409 17.4598 6.38792C18.2076 6.66792 18.7081 7.40409 18.7081 8.21959V8.25576C18.6859 8.52292 18.7664 8.78076 18.9298 8.97909C19.0931 9.17742 19.3381 9.29292 19.5948 9.31742Z" fill="url(#paint0_linear_1424_1633)"/>
<defs>
<linearGradient id="paint0_linear_1424_1633" x1="23.6666" y1="23.0841" x2="-3.86754" y2="14.6806" gradientUnits="userSpaceOnUse">
<stop stop-color="#FF4D67"/>
<stop offset="1" stop-color="#FF8A9B"/>
</linearGradient>
</defs>
</svg>
