<svg width="14" height="14" viewBox="0 0 14 14" fill="none" xmlns="http://www.w3.org/2000/svg">
<g id="Group">
<path id="Union" fill-rule="evenodd" clip-rule="evenodd" d="M2.02659 0.333252H4.27992C5.21992 0.333252 5.97325 1.09992 5.97325 2.04059V4.31325C5.97325 5.25992 5.21992 6.01992 4.27992 6.01992H2.02659C1.09325 6.01992 0.333252 5.25992 0.333252 4.31325V2.04059C0.333252 1.09992 1.09325 0.333252 2.02659 0.333252ZM2.02659 7.97972H4.27992C5.21992 7.97972 5.97325 8.74039 5.97325 9.68705V11.9597C5.97325 12.8997 5.21992 13.6664 4.27992 13.6664H2.02659C1.09325 13.6664 0.333252 12.8997 0.333252 11.9597V9.68705C0.333252 8.74039 1.09325 7.97972 2.02659 7.97972ZM11.9733 0.333252H9.71999C8.77999 0.333252 8.02665 1.09992 8.02665 2.04059V4.31325C8.02665 5.25992 8.77999 6.01992 9.71999 6.01992H11.9733C12.9067 6.01992 13.6667 5.25992 13.6667 4.31325V2.04059C13.6667 1.09992 12.9067 0.333252 11.9733 0.333252ZM9.71999 7.97972H11.9733C12.9067 7.97972 13.6667 8.74039 13.6667 9.68705V11.9597C13.6667 12.8997 12.9067 13.6664 11.9733 13.6664H9.71999C8.77999 13.6664 8.02665 12.8997 8.02665 11.9597V9.68705C8.02665 8.74039 8.77999 7.97972 9.71999 7.97972Z" fill="#FF4D67"/>
</g>
</svg>
