<svg width="21" height="20" viewBox="0 0 21 20" fill="none" xmlns="http://www.w3.org/2000/svg">
<g id="Group">
<path id="Union" fill-rule="evenodd" clip-rule="evenodd" d="M0.125 8.66993C0.125 3.88166 3.96534 0 8.70264 0C10.9776 0 13.1593 0.913436 14.7679 2.53936C16.3766 4.16529 17.2803 6.37052 17.2803 8.66993C17.2803 13.4582 13.4399 17.3399 8.70264 17.3399C3.96534 17.3399 0.125 13.4582 0.125 8.66993ZM17.1384 15.6543L19.693 17.7164H19.7374C20.2542 18.2388 20.2542 19.0858 19.7374 19.6082C19.2205 20.1306 18.3826 20.1306 17.8657 19.6082L15.7457 17.1785C15.5453 16.9766 15.4326 16.7024 15.4326 16.4164C15.4326 16.1304 15.5453 15.8562 15.7457 15.6543C16.1322 15.2704 16.7518 15.2704 17.1384 15.6543Z" fill="#FF4D67"/>
</g>
</svg>
