<svg width="28" height="28" viewBox="0 0 28 28" fill="none" xmlns="http://www.w3.org/2000/svg">
<path fill-rule="evenodd" clip-rule="evenodd" d="M14 11.0835C15.611 11.0835 16.9167 12.3891 16.9167 14.0002C16.9167 15.6112 15.611 16.9168 14 16.9168C12.389 16.9168 11.0833 15.6112 11.0833 14.0002C11.0833 12.3891 12.389 11.0835 14 11.0835Z" stroke="#212121" stroke-width="1.5" stroke-linecap="round" stroke-linejoin="round"/>
<path fill-rule="evenodd" clip-rule="evenodd" d="M23.5293 8.4587V8.4587C22.7319 7.06774 20.9664 6.59179 19.5866 7.39503C18.3864 8.09224 16.8864 7.21986 16.8864 5.82429C16.8864 4.21898 15.5935 2.91675 13.9997 2.91675V2.91675C12.4059 2.91675 11.113 4.21898 11.113 5.82429C11.113 7.21986 9.61306 8.09224 8.414 7.39503C7.03301 6.59179 5.26759 7.06774 4.47012 8.4587C3.67379 9.84967 4.14632 11.6278 5.52731 12.4299C6.72638 13.1283 6.72638 14.8719 5.52731 15.5702C4.14632 16.3735 3.67379 18.1517 4.47012 19.5415C5.26759 20.9324 7.03301 21.4084 8.41285 20.6063H8.414C9.61306 19.9079 11.113 20.7803 11.113 22.1759V22.1759C11.113 23.7812 12.4059 25.0834 13.9997 25.0834V25.0834C15.5935 25.0834 16.8864 23.7812 16.8864 22.1759V22.1759C16.8864 20.7803 18.3864 19.9079 19.5866 20.6063C20.9664 21.4084 22.7319 20.9324 23.5293 19.5415C24.3268 18.1517 23.8531 16.3735 22.4733 15.5702H22.4721C21.2731 14.8719 21.2731 13.1283 22.4733 12.4299C23.8531 11.6278 24.3268 9.84967 23.5293 8.4587Z" stroke="#212121" stroke-width="1.5" stroke-linecap="round" stroke-linejoin="round"/>
</svg>
