<svg width="347" height="334" viewBox="0 0 347 334" fill="none" xmlns="http://www.w3.org/2000/svg">
<path d="M170.31 323.037C171.608 327.226 170.397 331.795 167.809 332.597C165.221 333.399 162.753 332.269 161.455 328.081C160.157 323.892 161.171 321.742 163.759 320.94C166.347 320.138 169.012 318.848 170.31 323.037Z" fill="#FFB8C2"/>
<path d="M336.07 312.732C330.091 318.154 321.527 319.685 318.177 315.991C314.827 312.297 314.793 307.302 320.772 301.88C326.751 296.459 331.125 296.48 334.475 300.174C337.825 303.868 342.048 307.31 336.07 312.732Z" fill="#FFB8C2"/>
<path d="M42.9038 304.5C34.6139 312.018 20.2221 311.364 12.8592 303.244C5.49617 295.125 3.42023 285.963 11.7101 278.445C20 270.927 27.6752 272.732 35.0382 280.851C42.4012 288.971 51.1936 296.982 42.9038 304.5Z" fill="#FFB8C2"/>
<path d="M76.6134 179.846C77.9116 184.034 76.7002 188.603 74.1121 189.405C71.524 190.207 69.0565 189.078 67.7583 184.889C66.4601 180.701 67.4743 178.551 70.0624 177.749C72.6505 176.947 75.3153 175.657 76.6134 179.846Z" fill="#FFB8C2"/>
<path d="M304.337 109.818C303.432 98.3876 313.039 87.1218 324.304 86.2302C335.568 85.3385 344.35 89.3887 345.254 100.819C346.159 112.249 339.848 117.346 328.584 118.237C317.32 119.129 305.242 121.247 304.337 109.818Z" fill="#FF7185"/>
<path d="M20.061 87.4448C17.7795 89.8738 12.4513 86.9392 9.68935 84.1773C6.9274 81.4153 3.43236 75.9763 7.45707 71.9516C11.4818 67.9269 16.8691 73.4968 19.631 76.2588C22.3929 79.0207 22.3426 85.0159 20.061 87.4448Z" fill="#FF94A4"/>
<path d="M131.693 39.2792C125.714 44.7009 117.15 46.2316 113.801 42.5375C110.451 38.8434 110.417 33.8491 116.395 28.4273C122.374 23.0055 126.749 23.0265 130.098 26.7205C133.448 30.4146 137.672 33.8574 131.693 39.2792Z" fill="#FFB8C2"/>
<path d="M237.624 3.62709C238.701 7.64919 236.014 12.3067 232.05 13.3688C228.087 14.4309 224.683 13.5643 223.605 9.54224C222.528 5.52013 224.445 3.28323 228.409 2.22112C232.373 1.15901 236.546 -0.395019 237.624 3.62709Z" fill="#FFB8C2"/>
</svg>
